<?xml version="1.0" encoding="UTF-8"?>
<svg id="Calque_2" data-name="Calque 2" xmlns="http://www.w3.org/2000/svg" viewBox="0 0 770.79 961.66">
  <defs>
    <style>
      .cls-1 {
        fill: #f4d34d;
      }

      .cls-1, .cls-2, .cls-3, .cls-4, .cls-5, .cls-6 {
        stroke-width: 0px;
      }

      .cls-2 {
        fill: #4dc9ea;
      }

      .cls-3 {
        fill: #0d1b28;
      }

      .cls-4 {
        fill: #8fadb7;
      }

      .cls-5 {
        fill: #fff;
      }

      .cls-6 {
        fill: #ebf4f3;
      }
    </style>
  </defs>
  <g id="Calque_1-2" data-name="Calque 1">
    <path class="cls-3" d="m0,245.58v470.51c0,3.83,1.97,7.4,5.22,9.43l374.26,234.45c3.61,2.26,8.2,2.26,11.82,0l374.26-234.45c3.25-2.03,5.22-5.6,5.22-9.43V245.58c0-3.83-1.97-7.4-5.22-9.43L391.3,1.7c-3.61-2.26-8.2-2.26-11.82,0L5.22,236.14c-3.25,2.03-5.22,5.6-5.22,9.43Z"/>
    <path class="cls-1" d="m230.71,585.4c0,9.28-7.36,16.78-16.43,16.78s-16.43-7.5-16.43-16.78c0-4.85,2.01-9.23,5.26-12.28v-207.47l22.34,8.89v198.61c3.22,3.02,5.26,7.4,5.26,12.25Z"/>
    <path class="cls-1" d="m282.26,576.08c0,9.28-7.36,16.78-16.43,16.78s-16.43-7.5-16.43-16.78c0-4.85,2.01-9.23,5.26-12.28v-179.8l22.34,8.89v170.93c3.22,3.02,5.26,7.4,5.26,12.25Z"/>
    <path class="cls-5" d="m166.34,629.73l-33.82-19.69V208.06L384.09,45.14l331.88,204.06v176.66h-126.13c-11.4,0-11.4-22.73,0-22.73h86.57v-133.04L381.87,85.85l-214.56,146.96-.98,396.93Z"/>
    <path class="cls-4" d="m407.49,880.88l308.48-188.52v-176.66h-126.13c-11.4,0-11.4,22.73,0,22.73h86.57v133.04l-268.92,166.91v42.5Z"/>
    <polygon class="cls-4" points="353.85 880.88 47.24 692.36 47.24 252.72 86.8 228.41 86.8 671.47 353.85 838.51 353.85 880.88"/>
    <path class="cls-2" d="m715.97,480.07h-126.13c-11.4,0-11.4-22.73,0-22.73h126.13"/>
    <polygon class="cls-2" points="648.43 375.68 621.99 375.82 621.99 299.28 380.59 154.41 197.86 278.65 197.86 246.59 382.07 121.69 648.43 285.31 648.43 375.68"/>
    <polygon class="cls-2" points="648.43 565.36 621.99 565.22 621.99 642.33 407.49 775.94 407.49 804.3 648.43 656.29 648.43 565.36"/>
    <polygon class="cls-2" points="353.84 775.95 353.84 838.51 329.38 823.21 329.38 789.27 132.53 668.34 132.53 638.06 353.84 775.95"/>
    <path class="cls-6" d="m441.27,693.81v.02h-.15s.1-.02.15-.02Z"/>
    <path class="cls-5" d="m345.67,501.61h58.62c22.3,0,39.81,5.4,52.53,16.14,12.72,10.74,19.06,25.5,19.06,44.26,0,9.09-1.73,17.43-5.2,25-3.49,7.62-8.29,14.14-14.41,19.56-.77.68-1.55,1.34-2.36,1.98-4.09,3.25-8.62,5.84-13.42,7.81-6.89,2.83-14.33,4.08-21.78,4.21l-51.31.93c-17.1,0-33.51-6.79-45.6-18.89h0s-97.12,56.07-97.12,56.07l97.12,56.07h0c12.03-13.32,29.13-20.92,47.07-20.93h60.29c10.52-.02,21.04-1.13,31.26-3.64,2.44-.6,4.68-1.23,6.67-1.9,19.04-6.41,35.45-15.35,49.26-26.79,13.81-11.46,24.58-25.1,32.36-40.87,7.77-15.79,11.68-33.07,11.68-51.81,0-14.01-2.05-26.91-6.19-38.64-4.11-11.73-10-22.06-17.7-30.94-7.67-8.86-16.96-16.09-27.82-21.61-10.2-5.15-21.54-8.61-34.06-10.32-1.46-.2-2.43-1.51-2.43-3.12,0-1.49.82-2.75,2.15-3.07,10.08-2.43,19.33-6.39,27.75-11.91,9.04-5.92,16.73-13.12,23.05-21.61,6.29-8.47,11.19-18.12,14.65-28.86,3.49-10.77,5.22-22.35,5.22-34.78,0-16.78-3.47-32.23-10.42-46.37-6.96-14.09-16.59-26.22-28.96-36.39-12.33-10.17-27.06-18.12-44.16-23.84-17.08-5.74-83.82-5.17-104.12-5.17-21.56,0-41.14,3.07-58.69,9.18-17.55,6.11-32.6,14.9-45.13,26.34-12.53,11.46-22.3,25.32-29.36,41.61l70.78,29.58c8.29-17.9,19.23-30.65,31.81-35.33,14.53-7.6,84.07-8.37,102.64.54,19.8,8.44,36.96,20.3,37.16,52.26,0,8.69-1.49,16.64-4.53,23.81-3.02,7.23-7.3,13.39-12.87,18.52-5.59,5.15-12.25,9.13-20.03,11.98-7.8,2.87-16.34,4.31-25.67,4.31h-57.78v66.62Z"/>
  </g>
</svg>